<mxfile host="app.diagrams.net" modified="2024-05-06T14:51:48.062Z" agent="Mozilla/5.0 (Macintosh; Intel Mac OS X 10_15_7) AppleWebKit/537.36 (KHTML, like Gecko) Chrome/124.0.0.0 Safari/537.36" etag="rr79M4PXvMiYsS21308o" version="24.2.5" type="device">
  <diagram name="Page-1" id="cqueR6WYeeYaRP6wYspU">
    <mxGraphModel dx="1536" dy="842" grid="1" gridSize="10" guides="1" tooltips="1" connect="1" arrows="1" fold="1" page="1" pageScale="1" pageWidth="827" pageHeight="1169" math="0" shadow="0">
      <root>
        <mxCell id="0" />
        <mxCell id="1" parent="0" />
        <mxCell id="BBNkePrnfFAcqId5UuHT-2" value="" style="rounded=0;whiteSpace=wrap;html=1;" vertex="1" parent="1">
          <mxGeometry x="10" y="100" width="380" height="340" as="geometry" />
        </mxCell>
        <mxCell id="BBNkePrnfFAcqId5UuHT-3" value="CLIENT" style="text;align=center;verticalAlign=middle;resizable=0;points=[];autosize=1;strokeColor=none;fillColor=none;fontStyle=1;fontSize=15;" vertex="1" parent="1">
          <mxGeometry x="160" y="60" width="80" height="30" as="geometry" />
        </mxCell>
        <mxCell id="BBNkePrnfFAcqId5UuHT-15" style="edgeStyle=orthogonalEdgeStyle;rounded=0;orthogonalLoop=1;jettySize=auto;html=1;" edge="1" parent="1" source="BBNkePrnfFAcqId5UuHT-6" target="BBNkePrnfFAcqId5UuHT-7">
          <mxGeometry relative="1" as="geometry" />
        </mxCell>
        <mxCell id="BBNkePrnfFAcqId5UuHT-6" value="Serialisation Module" style="rounded=0;whiteSpace=wrap;fillColor=#dae8fc;strokeColor=#6c8ebf;" vertex="1" parent="1">
          <mxGeometry x="140" y="110" width="120" height="60" as="geometry" />
        </mxCell>
        <mxCell id="BBNkePrnfFAcqId5UuHT-16" style="edgeStyle=orthogonalEdgeStyle;rounded=0;orthogonalLoop=1;jettySize=auto;html=1;" edge="1" parent="1" source="BBNkePrnfFAcqId5UuHT-7" target="BBNkePrnfFAcqId5UuHT-8">
          <mxGeometry relative="1" as="geometry" />
        </mxCell>
        <mxCell id="BBNkePrnfFAcqId5UuHT-7" value="Encryption Module" style="rounded=0;whiteSpace=wrap;fillColor=#dae8fc;strokeColor=#6c8ebf;" vertex="1" parent="1">
          <mxGeometry x="140" y="230" width="120" height="60" as="geometry" />
        </mxCell>
        <mxCell id="BBNkePrnfFAcqId5UuHT-8" value="Networking Module" style="rounded=0;whiteSpace=wrap;fillColor=#dae8fc;strokeColor=#6c8ebf;" vertex="1" parent="1">
          <mxGeometry x="140" y="360" width="120" height="60" as="geometry" />
        </mxCell>
        <mxCell id="BBNkePrnfFAcqId5UuHT-9" value="" style="rounded=0;whiteSpace=wrap;html=1;" vertex="1" parent="1">
          <mxGeometry x="440" y="100" width="380" height="340" as="geometry" />
        </mxCell>
        <mxCell id="BBNkePrnfFAcqId5UuHT-10" value="SERVER" style="text;align=center;verticalAlign=middle;resizable=0;points=[];autosize=1;strokeColor=none;fillColor=none;fontStyle=1;fontSize=15;" vertex="1" parent="1">
          <mxGeometry x="590" y="60" width="80" height="30" as="geometry" />
        </mxCell>
        <mxCell id="BBNkePrnfFAcqId5UuHT-17" style="edgeStyle=orthogonalEdgeStyle;rounded=0;orthogonalLoop=1;jettySize=auto;html=1;entryX=0.5;entryY=0;entryDx=0;entryDy=0;" edge="1" parent="1" source="BBNkePrnfFAcqId5UuHT-11" target="BBNkePrnfFAcqId5UuHT-12">
          <mxGeometry relative="1" as="geometry" />
        </mxCell>
        <mxCell id="BBNkePrnfFAcqId5UuHT-11" value="Networking Module" style="rounded=0;whiteSpace=wrap;fillColor=#d5e8d4;strokeColor=#82b366;" vertex="1" parent="1">
          <mxGeometry x="570" y="110" width="120" height="60" as="geometry" />
        </mxCell>
        <mxCell id="BBNkePrnfFAcqId5UuHT-18" style="edgeStyle=orthogonalEdgeStyle;rounded=0;orthogonalLoop=1;jettySize=auto;html=1;entryX=0.5;entryY=0;entryDx=0;entryDy=0;" edge="1" parent="1" source="BBNkePrnfFAcqId5UuHT-12" target="BBNkePrnfFAcqId5UuHT-13">
          <mxGeometry relative="1" as="geometry" />
        </mxCell>
        <mxCell id="BBNkePrnfFAcqId5UuHT-12" value="Decryption Module" style="rounded=0;whiteSpace=wrap;fillColor=#d5e8d4;strokeColor=#82b366;" vertex="1" parent="1">
          <mxGeometry x="570" y="200" width="120" height="60" as="geometry" />
        </mxCell>
        <mxCell id="BBNkePrnfFAcqId5UuHT-19" style="edgeStyle=orthogonalEdgeStyle;rounded=0;orthogonalLoop=1;jettySize=auto;html=1;entryX=0.5;entryY=0;entryDx=0;entryDy=0;" edge="1" parent="1" source="BBNkePrnfFAcqId5UuHT-13" target="BBNkePrnfFAcqId5UuHT-14">
          <mxGeometry relative="1" as="geometry" />
        </mxCell>
        <mxCell id="BBNkePrnfFAcqId5UuHT-13" value="Deserialisation Module" style="rounded=0;whiteSpace=wrap;fillColor=#d5e8d4;strokeColor=#82b366;" vertex="1" parent="1">
          <mxGeometry x="570" y="290" width="120" height="60" as="geometry" />
        </mxCell>
        <mxCell id="BBNkePrnfFAcqId5UuHT-14" value="Data Handler" style="rounded=0;whiteSpace=wrap;fillColor=#d5e8d4;strokeColor=#82b366;" vertex="1" parent="1">
          <mxGeometry x="570" y="380" width="120" height="60" as="geometry" />
        </mxCell>
        <mxCell id="BBNkePrnfFAcqId5UuHT-20" style="edgeStyle=orthogonalEdgeStyle;rounded=0;orthogonalLoop=1;jettySize=auto;html=1;entryX=0;entryY=0.5;entryDx=0;entryDy=0;strokeWidth=4;" edge="1" parent="1" source="BBNkePrnfFAcqId5UuHT-8" target="BBNkePrnfFAcqId5UuHT-11">
          <mxGeometry relative="1" as="geometry" />
        </mxCell>
        <mxCell id="BBNkePrnfFAcqId5UuHT-21" value="Encrypted Data Transmission" style="text;align=center;verticalAlign=middle;resizable=0;points=[];autosize=1;strokeColor=none;fillColor=none;rotation=-90;" vertex="1" parent="1">
          <mxGeometry x="280" y="240" width="240" height="30" as="geometry" />
        </mxCell>
        <mxCell id="BBNkePrnfFAcqId5UuHT-23" value="Client-Server Network Architecture" style="text;align=left;verticalAlign=middle;resizable=0;points=[];autosize=1;strokeColor=none;fillColor=none;fontSize=25;fontStyle=1" vertex="1" parent="1">
          <mxGeometry x="10" y="10" width="410" height="40" as="geometry" />
        </mxCell>
      </root>
    </mxGraphModel>
  </diagram>
</mxfile>
